<svg version="1.1" id="Layer_1" xmlns="http://www.w3.org/2000/svg" xmlns:xlink="http://www.w3.org/1999/xlink" x="0px" y="0px"
	 width="100%" viewBox="0 0 50 50" enable-background="new 0 0 50 50" xml:space="preserve">
<path fill="#FFFFFF" opacity="1.000000" stroke="none" 
	d="
M51.000000,8.000000 
	C51.000000,19.687561 51.000000,31.375122 50.531342,43.531342 
	C33.708454,44.000000 17.354227,44.000000 1.000000,44.000000 
	C1.000000,32.312439 1.000000,20.624876 1.468657,8.468657 
	C18.291544,8.000000 34.645771,8.000000 51.000000,8.000000 
M47.286018,41.996105 
	C47.856155,41.400192 48.914101,40.811134 48.922588,40.207329 
	C49.033688,32.302711 48.996426,24.396008 48.996426,15.992495 
	C42.035446,21.396513 35.464844,26.314230 29.124395,31.512665 
	C26.691387,33.507450 25.089121,33.305092 22.739491,31.381893 
	C16.417135,26.206980 9.858805,21.320362 3.251643,16.209053 
	C3.251643,24.947865 3.251643,33.331161 3.251643,41.999725 
	C17.774178,41.999725 32.046700,41.999725 47.286018,41.996105 
M42.330627,10.000000 
	C29.291935,10.000000 16.253244,10.000000 3.226676,10.000000 
	C3.189597,10.842399 3.034918,11.329290 3.181956,11.450664 
	C10.173844,17.222139 17.135590,23.034288 24.289110,28.599720 
	C25.051256,29.192673 27.300976,28.783796 28.266479,28.053837 
	C33.571560,24.042999 38.701794,19.799980 43.869705,15.609113 
	C45.720760,14.108021 47.509422,12.529992 49.326561,10.987079 
	C49.109623,10.658052 48.892685,10.329026 48.675751,10.000000 
	C46.874096,10.000000 45.072441,10.000000 42.330627,10.000000 
z"/>
<path fill="#000000" opacity="1.000000" stroke="none" 
	d="
M51.000000,7.502095 
	C34.645771,8.000000 18.291544,8.000000 1.468657,8.000000 
	C1.000000,5.684886 1.000000,3.369771 1.000000,1.027328 
	C17.666664,1.027328 34.333328,1.027328 51.000000,1.027328 
	C51.000000,3.035422 51.000000,5.019806 51.000000,7.502095 
z"/>
<path fill="#000000" opacity="1.000000" stroke="none" 
	d="
M1.000000,44.497906 
	C17.354227,44.000000 33.708454,44.000000 50.531342,44.000000 
	C51.000000,46.315113 51.000000,48.630230 51.000000,50.972672 
	C34.333336,50.972672 17.666670,50.972672 1.000000,50.972672 
	C1.000000,48.964577 1.000000,46.980194 1.000000,44.497906 
z"/>
<path fill="#000000" opacity="1.000000" stroke="none" 
	d="
M46.802620,41.997917 
	C32.046700,41.999725 17.774178,41.999725 3.251643,41.999725 
	C3.251643,33.331161 3.251643,24.947865 3.251643,16.209053 
	C9.858805,21.320362 16.417135,26.206980 22.739491,31.381893 
	C25.089121,33.305092 26.691387,33.507450 29.124395,31.512665 
	C35.464844,26.314230 42.035446,21.396513 48.996426,15.992495 
	C48.996426,24.396008 49.033688,32.302711 48.922588,40.207329 
	C48.914101,40.811134 47.856155,41.400192 46.802620,41.997917 
z"/>
<path fill="#000000" opacity="1.000000" stroke="none" 
	d="
M42.800705,10.000000 
	C45.072441,10.000000 46.874096,10.000000 48.675751,10.000000 
	C48.892685,10.329026 49.109623,10.658052 49.326561,10.987079 
	C47.509422,12.529992 45.720760,14.108021 43.869705,15.609113 
	C38.701794,19.799980 33.571560,24.042999 28.266479,28.053837 
	C27.300976,28.783796 25.051256,29.192673 24.289110,28.599720 
	C17.135590,23.034288 10.173844,17.222139 3.181956,11.450664 
	C3.034918,11.329290 3.189597,10.842399 3.226676,10.000000 
	C16.253244,10.000000 29.291935,10.000000 42.800705,10.000000 
z"/>
</svg>